<mxfile host="app.diagrams.net" modified="2024-01-05T19:24:41.486Z" agent="Mozilla/5.0 (Windows NT 10.0; Win64; x64) AppleWebKit/537.36 (KHTML, like Gecko) Chrome/120.0.0.0 Safari/537.36" etag="7a385SSfVDceTqVvMuAy" version="22.1.16" type="github">
  <diagram name="Page-1" id="2YBvvXClWsGukQMizWep">
    <mxGraphModel dx="503" dy="267" grid="1" gridSize="10" guides="1" tooltips="1" connect="1" arrows="1" fold="1" page="1" pageScale="1" pageWidth="850" pageHeight="1100" math="0" shadow="0">
      <root>
        <mxCell id="0" />
        <mxCell id="1" parent="0" />
        <mxCell id="q8IS-emqR-mlG0tCKILo-1" value="UserController" style="shape=umlLifeline;perimeter=lifelinePerimeter;whiteSpace=wrap;html=1;container=0;dropTarget=0;collapsible=0;recursiveResize=0;outlineConnect=0;portConstraint=eastwest;newEdgeStyle={&quot;edgeStyle&quot;:&quot;elbowEdgeStyle&quot;,&quot;elbow&quot;:&quot;vertical&quot;,&quot;curved&quot;:0,&quot;rounded&quot;:0};" vertex="1" parent="1">
          <mxGeometry x="40" y="40" width="100" height="690" as="geometry" />
        </mxCell>
        <mxCell id="q8IS-emqR-mlG0tCKILo-2" value="Post()" style="html=1;verticalAlign=bottom;startArrow=oval;endArrow=block;startSize=8;edgeStyle=elbowEdgeStyle;elbow=vertical;curved=0;rounded=0;entryX=-0.26;entryY=0.004;entryDx=0;entryDy=0;entryPerimeter=0;" edge="1" parent="q8IS-emqR-mlG0tCKILo-1">
          <mxGeometry relative="1" as="geometry">
            <mxPoint x="-18" y="70" as="sourcePoint" />
            <mxPoint x="44.39999999999998" y="71.39999999999998" as="targetPoint" />
          </mxGeometry>
        </mxCell>
        <mxCell id="q8IS-emqR-mlG0tCKILo-3" value="AddUserCommandHandler" style="shape=umlLifeline;perimeter=lifelinePerimeter;whiteSpace=wrap;html=1;container=0;dropTarget=0;collapsible=0;recursiveResize=0;outlineConnect=0;portConstraint=eastwest;newEdgeStyle={&quot;edgeStyle&quot;:&quot;elbowEdgeStyle&quot;,&quot;elbow&quot;:&quot;vertical&quot;,&quot;curved&quot;:0,&quot;rounded&quot;:0};" vertex="1" parent="1">
          <mxGeometry x="220" y="40" width="160" height="680" as="geometry" />
        </mxCell>
        <mxCell id="q8IS-emqR-mlG0tCKILo-4" value="" style="html=1;points=[];perimeter=orthogonalPerimeter;outlineConnect=0;targetShapes=umlLifeline;portConstraint=eastwest;newEdgeStyle={&quot;edgeStyle&quot;:&quot;elbowEdgeStyle&quot;,&quot;elbow&quot;:&quot;vertical&quot;,&quot;curved&quot;:0,&quot;rounded&quot;:0};" vertex="1" parent="q8IS-emqR-mlG0tCKILo-3">
          <mxGeometry x="75" y="80" width="10" height="580" as="geometry" />
        </mxCell>
        <mxCell id="q8IS-emqR-mlG0tCKILo-5" value="new AddUserCommand(inputs)" style="html=1;verticalAlign=bottom;endArrow=block;edgeStyle=elbowEdgeStyle;elbow=horizontal;curved=0;rounded=0;" edge="1" parent="1" source="q8IS-emqR-mlG0tCKILo-8" target="q8IS-emqR-mlG0tCKILo-4">
          <mxGeometry relative="1" as="geometry">
            <mxPoint x="95" y="130" as="sourcePoint" />
            <Array as="points">
              <mxPoint x="180" y="130" />
            </Array>
            <mxPoint x="290" y="130" as="targetPoint" />
          </mxGeometry>
        </mxCell>
        <mxCell id="q8IS-emqR-mlG0tCKILo-6" value="CreateUserInstance" style="shape=umlLifeline;perimeter=lifelinePerimeter;whiteSpace=wrap;html=1;container=0;dropTarget=0;collapsible=0;recursiveResize=0;outlineConnect=0;portConstraint=eastwest;newEdgeStyle={&quot;edgeStyle&quot;:&quot;elbowEdgeStyle&quot;,&quot;elbow&quot;:&quot;vertical&quot;,&quot;curved&quot;:0,&quot;rounded&quot;:0};" vertex="1" parent="1">
          <mxGeometry x="400" y="40" width="121" height="680" as="geometry" />
        </mxCell>
        <mxCell id="q8IS-emqR-mlG0tCKILo-7" value="" style="html=1;points=[];perimeter=orthogonalPerimeter;outlineConnect=0;targetShapes=umlLifeline;portConstraint=eastwest;newEdgeStyle={&quot;edgeStyle&quot;:&quot;elbowEdgeStyle&quot;,&quot;elbow&quot;:&quot;vertical&quot;,&quot;curved&quot;:0,&quot;rounded&quot;:0};" vertex="1" parent="q8IS-emqR-mlG0tCKILo-6">
          <mxGeometry x="56" y="100" width="10" height="70" as="geometry" />
        </mxCell>
        <mxCell id="q8IS-emqR-mlG0tCKILo-8" value="" style="rounded=0;whiteSpace=wrap;html=1;" vertex="1" parent="1">
          <mxGeometry x="85" y="110" width="10" height="610" as="geometry" />
        </mxCell>
        <mxCell id="q8IS-emqR-mlG0tCKILo-9" value="Result&amp;lt;User?&amp;gt;" style="text;html=1;strokeColor=none;fillColor=none;align=center;verticalAlign=middle;whiteSpace=wrap;rounded=0;" vertex="1" parent="1">
          <mxGeometry x="342.5" y="174" width="85" height="30" as="geometry" />
        </mxCell>
        <mxCell id="q8IS-emqR-mlG0tCKILo-10" value="Create(inputs)" style="text;html=1;align=center;verticalAlign=middle;resizable=0;points=[];autosize=1;strokeColor=none;fillColor=none;" vertex="1" parent="1">
          <mxGeometry x="335" y="129" width="100" height="30" as="geometry" />
        </mxCell>
        <mxCell id="q8IS-emqR-mlG0tCKILo-11" value="" style="endArrow=classic;html=1;rounded=0;" edge="1" parent="1">
          <mxGeometry width="50" height="50" relative="1" as="geometry">
            <mxPoint x="304.4999999999999" y="150" as="sourcePoint" />
            <mxPoint x="455.5" y="150" as="targetPoint" />
          </mxGeometry>
        </mxCell>
        <mxCell id="q8IS-emqR-mlG0tCKILo-12" value="" style="html=1;verticalAlign=bottom;endArrow=open;dashed=1;endSize=8;edgeStyle=elbowEdgeStyle;elbow=vertical;curved=0;rounded=0;" edge="1" parent="1">
          <mxGeometry x="0.0051" relative="1" as="geometry">
            <mxPoint x="304.4999999999999" y="197.00310344827588" as="targetPoint" />
            <Array as="points" />
            <mxPoint x="455.5" y="197.00310344827588" as="sourcePoint" />
            <mxPoint as="offset" />
          </mxGeometry>
        </mxCell>
        <mxCell id="q8IS-emqR-mlG0tCKILo-13" value="" style="html=1;verticalAlign=bottom;endArrow=block;edgeStyle=elbowEdgeStyle;elbow=vertical;curved=0;rounded=0;" edge="1" parent="1" target="q8IS-emqR-mlG0tCKILo-8">
          <mxGeometry relative="1" as="geometry">
            <mxPoint x="95" y="130" as="sourcePoint" />
            <Array as="points" />
            <mxPoint x="295" y="130" as="targetPoint" />
          </mxGeometry>
        </mxCell>
        <mxCell id="q8IS-emqR-mlG0tCKILo-14" value="&lt;font style=&quot;font-size: 11px;&quot;&gt;condition&lt;/font&gt;" style="shape=umlFrame;whiteSpace=wrap;html=1;pointerEvents=0;direction=east;" vertex="1" parent="1">
          <mxGeometry x="60" y="220" width="340" height="210" as="geometry" />
        </mxCell>
        <mxCell id="q8IS-emqR-mlG0tCKILo-15" value="[ Result.IsFailed ]" style="text;html=1;align=center;verticalAlign=middle;resizable=0;points=[];autosize=1;strokeColor=none;fillColor=default;fontSize=10;" vertex="1" parent="1">
          <mxGeometry x="250" y="250" width="100" height="30" as="geometry" />
        </mxCell>
        <mxCell id="q8IS-emqR-mlG0tCKILo-16" value="" style="html=1;verticalAlign=bottom;endArrow=open;dashed=1;endSize=8;edgeStyle=elbowEdgeStyle;elbow=vertical;curved=0;rounded=0;strokeColor=default;" edge="1" parent="1">
          <mxGeometry x="0.0051" relative="1" as="geometry">
            <mxPoint x="96" y="307" as="targetPoint" />
            <Array as="points" />
            <mxPoint x="294" y="308.0031034482759" as="sourcePoint" />
            <mxPoint as="offset" />
          </mxGeometry>
        </mxCell>
        <mxCell id="q8IS-emqR-mlG0tCKILo-17" value="&lt;font style=&quot;font-size: 9px;&quot;&gt;CustomGenericResult(&lt;br&gt;result,&lt;br style=&quot;font-size: 9px;&quot;&gt;data: null,&lt;br style=&quot;font-size: 9px;&quot;&gt;&amp;nbsp;statusCode: BadRequest)&lt;/font&gt;" style="text;html=1;align=center;verticalAlign=middle;resizable=0;points=[];autosize=1;strokeColor=none;fillColor=default;fontSize=9;" vertex="1" parent="1">
          <mxGeometry x="135" y="275" width="130" height="60" as="geometry" />
        </mxCell>
        <mxCell id="q8IS-emqR-mlG0tCKILo-18" value="" style="endArrow=none;dashed=1;html=1;rounded=0;" edge="1" parent="1">
          <mxGeometry width="50" height="50" relative="1" as="geometry">
            <mxPoint x="30" y="330" as="sourcePoint" />
            <mxPoint x="333" y="330" as="targetPoint" />
          </mxGeometry>
        </mxCell>
        <mxCell id="q8IS-emqR-mlG0tCKILo-19" value="[else]" style="text;html=1;align=center;verticalAlign=middle;resizable=0;points=[];autosize=1;strokeColor=none;fillColor=default;fontSize=10;imageWidth=24;arcSize=12;strokeOpacity=100;resizeHeight=0;" vertex="1" parent="1">
          <mxGeometry x="275" y="340" width="50" height="30" as="geometry" />
        </mxCell>
        <mxCell id="q8IS-emqR-mlG0tCKILo-23" value="UserRepository" style="shape=umlLifeline;perimeter=lifelinePerimeter;whiteSpace=wrap;html=1;container=0;dropTarget=0;collapsible=0;recursiveResize=0;outlineConnect=0;portConstraint=eastwest;newEdgeStyle={&quot;edgeStyle&quot;:&quot;elbowEdgeStyle&quot;,&quot;elbow&quot;:&quot;vertical&quot;,&quot;curved&quot;:0,&quot;rounded&quot;:0};" vertex="1" parent="1">
          <mxGeometry x="560" y="40" width="121" height="680" as="geometry" />
        </mxCell>
        <mxCell id="q8IS-emqR-mlG0tCKILo-24" value="" style="html=1;points=[];perimeter=orthogonalPerimeter;outlineConnect=0;targetShapes=umlLifeline;portConstraint=eastwest;newEdgeStyle={&quot;edgeStyle&quot;:&quot;elbowEdgeStyle&quot;,&quot;elbow&quot;:&quot;vertical&quot;,&quot;curved&quot;:0,&quot;rounded&quot;:0};" vertex="1" parent="q8IS-emqR-mlG0tCKILo-23">
          <mxGeometry x="55.5" y="340" width="10" height="110" as="geometry" />
        </mxCell>
        <mxCell id="q8IS-emqR-mlG0tCKILo-26" value="Add()" style="text;html=1;align=center;verticalAlign=middle;resizable=0;points=[];autosize=1;strokeColor=none;fillColor=none;" vertex="1" parent="1">
          <mxGeometry x="325" y="370" width="50" height="30" as="geometry" />
        </mxCell>
        <mxCell id="q8IS-emqR-mlG0tCKILo-27" value="" style="endArrow=classic;html=1;rounded=0;" edge="1" parent="1">
          <mxGeometry width="50" height="50" relative="1" as="geometry">
            <mxPoint x="305.4999999999999" y="391" as="sourcePoint" />
            <mxPoint x="615" y="391" as="targetPoint" />
          </mxGeometry>
        </mxCell>
        <mxCell id="q8IS-emqR-mlG0tCKILo-28" value="" style="html=1;verticalAlign=bottom;endArrow=open;dashed=1;endSize=8;edgeStyle=elbowEdgeStyle;elbow=vertical;curved=0;rounded=0;" edge="1" parent="1">
          <mxGeometry x="0.0051" relative="1" as="geometry">
            <mxPoint x="306" y="474" as="targetPoint" />
            <Array as="points" />
            <mxPoint x="611" y="473.00310344827585" as="sourcePoint" />
            <mxPoint as="offset" />
          </mxGeometry>
        </mxCell>
        <mxCell id="q8IS-emqR-mlG0tCKILo-29" value="Result" style="text;html=1;strokeColor=none;fillColor=none;align=center;verticalAlign=middle;whiteSpace=wrap;rounded=0;" vertex="1" parent="1">
          <mxGeometry x="360" y="450" width="85" height="30" as="geometry" />
        </mxCell>
        <mxCell id="q8IS-emqR-mlG0tCKILo-30" value="&lt;font style=&quot;font-size: 11px;&quot;&gt;condition&lt;/font&gt;" style="shape=umlFrame;whiteSpace=wrap;html=1;pointerEvents=0;direction=east;" vertex="1" parent="1">
          <mxGeometry x="60" y="500" width="340" height="210" as="geometry" />
        </mxCell>
        <mxCell id="q8IS-emqR-mlG0tCKILo-32" value="[ Result.IsFailed ]" style="text;html=1;align=center;verticalAlign=middle;resizable=0;points=[];autosize=1;strokeColor=none;fillColor=default;fontSize=10;" vertex="1" parent="1">
          <mxGeometry x="250" y="530" width="100" height="30" as="geometry" />
        </mxCell>
        <mxCell id="q8IS-emqR-mlG0tCKILo-33" value="" style="html=1;verticalAlign=bottom;endArrow=open;dashed=1;endSize=8;edgeStyle=elbowEdgeStyle;elbow=vertical;curved=0;rounded=0;strokeColor=default;" edge="1" parent="1" source="q8IS-emqR-mlG0tCKILo-4">
          <mxGeometry x="0.0051" relative="1" as="geometry">
            <mxPoint x="96" y="567" as="targetPoint" />
            <Array as="points" />
            <mxPoint x="294" y="568.0031034482759" as="sourcePoint" />
            <mxPoint as="offset" />
          </mxGeometry>
        </mxCell>
        <mxCell id="q8IS-emqR-mlG0tCKILo-34" value="[else]" style="text;html=1;align=center;verticalAlign=middle;resizable=0;points=[];autosize=1;strokeColor=none;fillColor=default;fontSize=10;imageWidth=24;arcSize=12;strokeOpacity=100;resizeHeight=0;" vertex="1" parent="1">
          <mxGeometry x="275" y="620" width="50" height="30" as="geometry" />
        </mxCell>
        <mxCell id="q8IS-emqR-mlG0tCKILo-31" value="&lt;font style=&quot;font-size: 9px;&quot;&gt;CustomGenericResult(&lt;br&gt;result,&lt;br style=&quot;font-size: 9px;&quot;&gt;data: null,&lt;br style=&quot;font-size: 9px;&quot;&gt;&amp;nbsp;statusCode: BadRequest)&lt;/font&gt;" style="text;html=1;align=center;verticalAlign=middle;resizable=0;points=[];autosize=1;strokeColor=none;fillColor=default;fontSize=9;" vertex="1" parent="1">
          <mxGeometry x="135" y="540" width="130" height="60" as="geometry" />
        </mxCell>
        <mxCell id="q8IS-emqR-mlG0tCKILo-41" value="UnitOfWork" style="shape=umlLifeline;perimeter=lifelinePerimeter;whiteSpace=wrap;html=1;container=0;dropTarget=0;collapsible=0;recursiveResize=0;outlineConnect=0;portConstraint=eastwest;newEdgeStyle={&quot;edgeStyle&quot;:&quot;elbowEdgeStyle&quot;,&quot;elbow&quot;:&quot;vertical&quot;,&quot;curved&quot;:0,&quot;rounded&quot;:0};" vertex="1" parent="1">
          <mxGeometry x="710" y="40" width="121" height="680" as="geometry" />
        </mxCell>
        <mxCell id="q8IS-emqR-mlG0tCKILo-42" value="" style="html=1;points=[];perimeter=orthogonalPerimeter;outlineConnect=0;targetShapes=umlLifeline;portConstraint=eastwest;newEdgeStyle={&quot;edgeStyle&quot;:&quot;elbowEdgeStyle&quot;,&quot;elbow&quot;:&quot;vertical&quot;,&quot;curved&quot;:0,&quot;rounded&quot;:0};" vertex="1" parent="q8IS-emqR-mlG0tCKILo-41">
          <mxGeometry x="55.5" y="620" width="10" height="20" as="geometry" />
        </mxCell>
        <mxCell id="q8IS-emqR-mlG0tCKILo-43" value="" style="endArrow=none;dashed=1;html=1;rounded=0;" edge="1" parent="1">
          <mxGeometry width="50" height="50" relative="1" as="geometry">
            <mxPoint x="30" y="604.52" as="sourcePoint" />
            <mxPoint x="333" y="604.52" as="targetPoint" />
          </mxGeometry>
        </mxCell>
        <mxCell id="q8IS-emqR-mlG0tCKILo-44" value="" style="endArrow=classic;html=1;rounded=0;" edge="1" parent="1">
          <mxGeometry width="50" height="50" relative="1" as="geometry">
            <mxPoint x="305.7499999999999" y="671" as="sourcePoint" />
            <mxPoint x="764" y="671" as="targetPoint" />
          </mxGeometry>
        </mxCell>
        <mxCell id="q8IS-emqR-mlG0tCKILo-45" value="SaveChange()" style="text;html=1;align=center;verticalAlign=middle;resizable=0;points=[];autosize=1;strokeColor=none;fillColor=none;" vertex="1" parent="1">
          <mxGeometry x="303" y="648" width="100" height="30" as="geometry" />
        </mxCell>
        <mxCell id="q8IS-emqR-mlG0tCKILo-48" value="" style="html=1;verticalAlign=bottom;endArrow=open;dashed=1;endSize=8;edgeStyle=elbowEdgeStyle;elbow=vertical;curved=0;rounded=0;strokeColor=default;" edge="1" parent="1">
          <mxGeometry x="0.0051" relative="1" as="geometry">
            <mxPoint x="95" y="677" as="targetPoint" />
            <Array as="points" />
            <mxPoint x="294" y="677" as="sourcePoint" />
            <mxPoint as="offset" />
          </mxGeometry>
        </mxCell>
        <mxCell id="q8IS-emqR-mlG0tCKILo-47" value="&lt;font style=&quot;font-size: 9px;&quot;&gt;CustomGenericResult(&lt;br&gt;result,&lt;br style=&quot;font-size: 9px;&quot;&gt;data: user,&lt;br style=&quot;font-size: 9px;&quot;&gt;&amp;nbsp;statusCode: Created)&lt;/font&gt;" style="text;html=1;align=center;verticalAlign=middle;resizable=0;points=[];autosize=1;strokeColor=none;fillColor=default;fontSize=9;" vertex="1" parent="1">
          <mxGeometry x="144" y="650" width="110" height="60" as="geometry" />
        </mxCell>
      </root>
    </mxGraphModel>
  </diagram>
</mxfile>
